<svg xmlns="http://www.w3.org/2000/svg" xmlns:xlink="http://www.w3.org/1999/xlink" width="300" zoomAndPan="magnify" viewBox="0 0 224.87999 37.5" height="50" preserveAspectRatio="xMidYMid meet" version="1.0"><defs><g/></defs><g fill="#f1eceb" fill-opacity="1"><g transform="translate(2.013789, 25.886658)"><g><path d="M 9.71875 0.546875 C 8.34375 0.546875 7.128906 0.328125 6.078125 -0.109375 C 5.035156 -0.546875 4.148438 -1.140625 3.421875 -1.890625 C 2.703125 -2.648438 2.15625 -3.503906 1.78125 -4.453125 C 1.414062 -5.410156 1.234375 -6.40625 1.234375 -7.4375 L 1.234375 -8.03125 C 1.234375 -9.101562 1.425781 -10.117188 1.8125 -11.078125 C 2.207031 -12.046875 2.769531 -12.90625 3.5 -13.65625 C 4.238281 -14.40625 5.128906 -14.992188 6.171875 -15.421875 C 7.222656 -15.847656 8.40625 -16.0625 9.71875 -16.0625 C 11.03125 -16.0625 12.210938 -15.847656 13.265625 -15.421875 C 14.316406 -14.992188 15.207031 -14.40625 15.9375 -13.65625 C 16.675781 -12.90625 17.234375 -12.046875 17.609375 -11.078125 C 17.992188 -10.117188 18.1875 -9.101562 18.1875 -8.03125 L 18.1875 -7.4375 C 18.1875 -6.40625 18 -5.410156 17.625 -4.453125 C 17.257812 -3.503906 16.710938 -2.648438 15.984375 -1.890625 C 15.253906 -1.140625 14.363281 -0.546875 13.3125 -0.109375 C 12.269531 0.328125 11.070312 0.546875 9.71875 0.546875 Z M 9.71875 -2.859375 C 10.695312 -2.859375 11.519531 -3.070312 12.1875 -3.5 C 12.851562 -3.925781 13.359375 -4.503906 13.703125 -5.234375 C 14.046875 -5.972656 14.21875 -6.8125 14.21875 -7.75 C 14.21875 -8.695312 14.039062 -9.535156 13.6875 -10.265625 C 13.332031 -11.003906 12.816406 -11.585938 12.140625 -12.015625 C 11.460938 -12.453125 10.65625 -12.671875 9.71875 -12.671875 C 8.789062 -12.671875 7.988281 -12.453125 7.3125 -12.015625 C 6.632812 -11.585938 6.113281 -11.003906 5.75 -10.265625 C 5.382812 -9.535156 5.203125 -8.695312 5.203125 -7.75 C 5.203125 -6.8125 5.378906 -5.972656 5.734375 -5.234375 C 6.085938 -4.503906 6.597656 -3.925781 7.265625 -3.5 C 7.929688 -3.070312 8.75 -2.859375 9.71875 -2.859375 Z M 9.71875 -2.859375 "/></g></g></g><g fill="#f1eceb" fill-opacity="1"><g transform="translate(21.431692, 25.886658)"><g><path d="M 7.546875 0.484375 C 5.753906 0.484375 4.367188 -0.101562 3.390625 -1.28125 C 2.410156 -2.46875 1.921875 -4.222656 1.921875 -6.546875 L 1.921875 -15.5625 L 5.890625 -15.5625 L 5.890625 -6.203125 C 5.890625 -5.253906 6.15625 -4.5 6.6875 -3.9375 C 7.21875 -3.375 7.941406 -3.09375 8.859375 -3.09375 C 9.773438 -3.09375 10.523438 -3.382812 11.109375 -3.96875 C 11.691406 -4.5625 11.984375 -5.363281 11.984375 -6.375 L 11.984375 -15.5625 L 15.953125 -15.5625 L 15.953125 0 L 12.8125 0 L 12.8125 -6.609375 L 13.125 -6.609375 C 13.125 -5.046875 12.921875 -3.738281 12.515625 -2.6875 C 12.117188 -1.632812 11.519531 -0.84375 10.71875 -0.3125 C 9.914062 0.21875 8.914062 0.484375 7.71875 0.484375 Z M 7.546875 0.484375 "/></g></g></g><g fill="#f1eceb" fill-opacity="1"><g transform="translate(39.705679, 25.886658)"><g><path d="M 7.890625 0.484375 C 5.753906 0.484375 4.082031 0.03125 2.875 -0.875 C 1.664062 -1.78125 1.03125 -3.03125 0.96875 -4.625 L 4.546875 -4.625 C 4.597656 -4.09375 4.890625 -3.609375 5.421875 -3.171875 C 5.960938 -2.734375 6.804688 -2.515625 7.953125 -2.515625 C 8.898438 -2.515625 9.65625 -2.6875 10.21875 -3.03125 C 10.78125 -3.375 11.0625 -3.84375 11.0625 -4.4375 C 11.0625 -4.945312 10.847656 -5.351562 10.421875 -5.65625 C 9.992188 -5.96875 9.265625 -6.171875 8.234375 -6.265625 L 6.859375 -6.40625 C 5.128906 -6.59375 3.796875 -7.085938 2.859375 -7.890625 C 1.921875 -8.691406 1.453125 -9.757812 1.453125 -11.09375 C 1.453125 -12.164062 1.71875 -13.0625 2.25 -13.78125 C 2.789062 -14.507812 3.53125 -15.054688 4.46875 -15.421875 C 5.414062 -15.796875 6.5 -15.984375 7.71875 -15.984375 C 9.625 -15.984375 11.164062 -15.5625 12.34375 -14.71875 C 13.53125 -13.882812 14.15625 -12.65625 14.21875 -11.03125 L 10.640625 -11.03125 C 10.597656 -11.570312 10.328125 -12.03125 9.828125 -12.40625 C 9.335938 -12.789062 8.625 -12.984375 7.6875 -12.984375 C 6.851562 -12.984375 6.207031 -12.820312 5.75 -12.5 C 5.289062 -12.175781 5.0625 -11.753906 5.0625 -11.234375 C 5.0625 -10.742188 5.242188 -10.363281 5.609375 -10.09375 C 5.984375 -9.820312 6.59375 -9.640625 7.4375 -9.546875 L 8.8125 -9.40625 C 10.632812 -9.21875 12.066406 -8.710938 13.109375 -7.890625 C 14.148438 -7.066406 14.671875 -5.960938 14.671875 -4.578125 C 14.671875 -3.546875 14.390625 -2.648438 13.828125 -1.890625 C 13.265625 -1.140625 12.476562 -0.554688 11.46875 -0.140625 C 10.457031 0.273438 9.265625 0.484375 7.890625 0.484375 Z M 7.890625 0.484375 "/></g></g></g><g fill="#f1eceb" fill-opacity="1"><g transform="translate(55.405858, 25.886658)"><g><path d="M 7.890625 0.484375 C 5.753906 0.484375 4.082031 0.03125 2.875 -0.875 C 1.664062 -1.78125 1.03125 -3.03125 0.96875 -4.625 L 4.546875 -4.625 C 4.597656 -4.09375 4.890625 -3.609375 5.421875 -3.171875 C 5.960938 -2.734375 6.804688 -2.515625 7.953125 -2.515625 C 8.898438 -2.515625 9.65625 -2.6875 10.21875 -3.03125 C 10.78125 -3.375 11.0625 -3.84375 11.0625 -4.4375 C 11.0625 -4.945312 10.847656 -5.351562 10.421875 -5.65625 C 9.992188 -5.96875 9.265625 -6.171875 8.234375 -6.265625 L 6.859375 -6.40625 C 5.128906 -6.59375 3.796875 -7.085938 2.859375 -7.890625 C 1.921875 -8.691406 1.453125 -9.757812 1.453125 -11.09375 C 1.453125 -12.164062 1.71875 -13.0625 2.25 -13.78125 C 2.789062 -14.507812 3.53125 -15.054688 4.46875 -15.421875 C 5.414062 -15.796875 6.5 -15.984375 7.71875 -15.984375 C 9.625 -15.984375 11.164062 -15.5625 12.34375 -14.71875 C 13.53125 -13.882812 14.15625 -12.65625 14.21875 -11.03125 L 10.640625 -11.03125 C 10.597656 -11.570312 10.328125 -12.03125 9.828125 -12.40625 C 9.335938 -12.789062 8.625 -12.984375 7.6875 -12.984375 C 6.851562 -12.984375 6.207031 -12.820312 5.75 -12.5 C 5.289062 -12.175781 5.0625 -11.753906 5.0625 -11.234375 C 5.0625 -10.742188 5.242188 -10.363281 5.609375 -10.09375 C 5.984375 -9.820312 6.59375 -9.640625 7.4375 -9.546875 L 8.8125 -9.40625 C 10.632812 -9.21875 12.066406 -8.710938 13.109375 -7.890625 C 14.148438 -7.066406 14.671875 -5.960938 14.671875 -4.578125 C 14.671875 -3.546875 14.390625 -2.648438 13.828125 -1.890625 C 13.265625 -1.140625 12.476562 -0.554688 11.46875 -0.140625 C 10.457031 0.273438 9.265625 0.484375 7.890625 0.484375 Z M 7.890625 0.484375 "/></g></g></g><g fill="#f1eceb" fill-opacity="1"><g transform="translate(71.106036, 25.886658)"><g><path d="M 9.203125 0.546875 C 7.867188 0.546875 6.703125 0.316406 5.703125 -0.140625 C 4.703125 -0.597656 3.875 -1.210938 3.21875 -1.984375 C 2.5625 -2.753906 2.066406 -3.613281 1.734375 -4.5625 C 1.398438 -5.519531 1.234375 -6.492188 1.234375 -7.484375 L 1.234375 -8.03125 C 1.234375 -9.0625 1.398438 -10.054688 1.734375 -11.015625 C 2.066406 -11.984375 2.5625 -12.84375 3.21875 -13.59375 C 3.875 -14.34375 4.6875 -14.941406 5.65625 -15.390625 C 6.632812 -15.835938 7.757812 -16.0625 9.03125 -16.0625 C 10.707031 -16.0625 12.113281 -15.695312 13.25 -14.96875 C 14.382812 -14.238281 15.238281 -13.273438 15.8125 -12.078125 C 16.382812 -10.890625 16.671875 -9.609375 16.671875 -8.234375 L 16.671875 -6.8125 L 2.921875 -6.8125 L 2.921875 -9.234375 L 14.1875 -9.234375 L 12.953125 -8.03125 C 12.953125 -9.019531 12.804688 -9.867188 12.515625 -10.578125 C 12.234375 -11.285156 11.800781 -11.828125 11.21875 -12.203125 C 10.632812 -12.585938 9.90625 -12.78125 9.03125 -12.78125 C 8.15625 -12.78125 7.410156 -12.578125 6.796875 -12.171875 C 6.191406 -11.773438 5.734375 -11.203125 5.421875 -10.453125 C 5.109375 -9.703125 4.953125 -8.800781 4.953125 -7.75 C 4.953125 -6.78125 5.101562 -5.914062 5.40625 -5.15625 C 5.707031 -4.40625 6.171875 -3.816406 6.796875 -3.390625 C 7.429688 -2.960938 8.234375 -2.75 9.203125 -2.75 C 10.179688 -2.75 10.972656 -2.941406 11.578125 -3.328125 C 12.191406 -3.722656 12.582031 -4.207031 12.75 -4.78125 L 16.40625 -4.78125 C 16.175781 -3.707031 15.738281 -2.769531 15.09375 -1.96875 C 14.445312 -1.164062 13.625 -0.546875 12.625 -0.109375 C 11.625 0.328125 10.484375 0.546875 9.203125 0.546875 Z M 9.203125 0.546875 "/></g></g></g><g fill="#f1eceb" fill-opacity="1"><g transform="translate(88.836662, 25.886658)"><g><path d="M 2.625 0 L 2.625 -15.890625 C 2.625 -17.671875 3.113281 -18.984375 4.09375 -19.828125 C 5.082031 -20.679688 6.539062 -21.109375 8.46875 -21.109375 L 10.40625 -21.109375 L 10.40625 -18.046875 L 8.171875 -18.046875 C 7.585938 -18.046875 7.132812 -17.882812 6.8125 -17.5625 C 6.5 -17.25 6.34375 -16.804688 6.34375 -16.234375 L 6.34375 0 Z M 0.6875 -12.359375 L 0.6875 -15.265625 L 10.671875 -15.265625 L 10.671875 -12.359375 Z M 0.6875 -12.359375 "/></g></g></g><g fill="#f1eceb" fill-opacity="1"><g transform="translate(99.732423, 25.886658)"><g/></g></g><g fill="#f1eceb" fill-opacity="1"><g transform="translate(105.91004, 25.886658)"><g><path d="M 3.71875 0 L 3.71875 -20.875 L 4.625 -20.875 L 4.625 0 Z M 4.203125 0 L 4.203125 -0.859375 L 15.265625 -0.859375 L 15.265625 0 Z M 4.203125 -10.171875 L 4.203125 -11.03125 L 14.15625 -11.03125 L 14.15625 -10.171875 Z M 4.203125 -20.015625 L 4.203125 -20.875 L 14.890625 -20.875 L 14.890625 -20.015625 Z M 4.203125 -20.015625 "/></g></g></g><g fill="#f1eceb" fill-opacity="1"><g transform="translate(123.297495, 25.886658)"><g><path d="M 3.71875 0 L 3.71875 -20.875 L 4.625 -20.875 L 4.625 0 Z M 4.09375 0 L 4.09375 -0.859375 L 14.40625 -0.859375 L 14.40625 0 Z M 4.09375 0 "/></g></g></g><g fill="#f1eceb" fill-opacity="1"><g transform="translate(138.454327, 25.886658)"><g/></g></g><g fill="#f1eceb" fill-opacity="1"><g transform="translate(145.432189, 25.886658)"><g><path d="M 16.75 0 L 6.46875 -10.0625 L 4.515625 -10.0625 L 14.578125 -20.875 L 15.703125 -20.875 L 6.203125 -10.6875 L 6.171875 -11.515625 L 17.984375 0 Z M 3.71875 0 L 3.71875 -20.875 L 4.625 -20.875 L 4.625 0 Z M 3.71875 0 "/></g></g></g><g fill="#f1eceb" fill-opacity="1"><g transform="translate(163.077026, 25.886658)"><g><path d="M 12.5 0.453125 C 10.800781 0.453125 9.296875 0.144531 7.984375 -0.46875 C 6.679688 -1.09375 5.585938 -1.921875 4.703125 -2.953125 C 3.816406 -3.992188 3.144531 -5.148438 2.6875 -6.421875 C 2.226562 -7.703125 2 -9.003906 2 -10.328125 L 2 -10.671875 C 2 -12.023438 2.238281 -13.332031 2.71875 -14.59375 C 3.195312 -15.863281 3.882812 -17.015625 4.78125 -18.046875 C 5.6875 -19.078125 6.785156 -19.890625 8.078125 -20.484375 C 9.378906 -21.085938 10.851562 -21.390625 12.5 -21.390625 C 14.132812 -21.390625 15.59375 -21.085938 16.875 -20.484375 C 18.164062 -19.890625 19.265625 -19.078125 20.171875 -18.046875 C 21.078125 -17.015625 21.765625 -15.863281 22.234375 -14.59375 C 22.703125 -13.332031 22.9375 -12.023438 22.9375 -10.671875 L 22.9375 -10.296875 C 22.9375 -8.984375 22.710938 -7.691406 22.265625 -6.421875 C 21.816406 -5.148438 21.144531 -3.992188 20.25 -2.953125 C 19.363281 -1.921875 18.273438 -1.09375 16.984375 -0.46875 C 15.691406 0.144531 14.195312 0.453125 12.5 0.453125 Z M 12.5 -0.40625 C 14.039062 -0.40625 15.398438 -0.6875 16.578125 -1.25 C 17.765625 -1.8125 18.757812 -2.570312 19.5625 -3.53125 C 20.375 -4.488281 20.984375 -5.566406 21.390625 -6.765625 C 21.804688 -7.972656 22.015625 -9.207031 22.015625 -10.46875 C 22.015625 -11.78125 21.800781 -13.035156 21.375 -14.234375 C 20.945312 -15.441406 20.320312 -16.515625 19.5 -17.453125 C 18.675781 -18.398438 17.671875 -19.148438 16.484375 -19.703125 C 15.304688 -20.253906 13.976562 -20.53125 12.5 -20.53125 C 11.007812 -20.53125 9.671875 -20.253906 8.484375 -19.703125 C 7.304688 -19.148438 6.300781 -18.398438 5.46875 -17.453125 C 4.644531 -16.515625 4.015625 -15.441406 3.578125 -14.234375 C 3.140625 -13.035156 2.921875 -11.78125 2.921875 -10.46875 C 2.921875 -9.207031 3.128906 -7.972656 3.546875 -6.765625 C 3.960938 -5.566406 4.578125 -4.488281 5.390625 -3.53125 C 6.203125 -2.570312 7.203125 -1.8125 8.390625 -1.25 C 9.578125 -0.6875 10.945312 -0.40625 12.5 -0.40625 Z M 12.5 -0.40625 "/></g></g></g><g fill="#f1eceb" fill-opacity="1"><g transform="translate(188.0143, 25.886658)"><g><path d="M 4.171875 0.0625 L 4.171875 -0.796875 L 10.84375 -0.796875 C 12.300781 -0.796875 13.453125 -1.234375 14.296875 -2.109375 C 15.140625 -2.992188 15.5625 -4.117188 15.5625 -5.484375 C 15.5625 -6.835938 15.148438 -7.957031 14.328125 -8.84375 C 13.503906 -9.726562 12.34375 -10.171875 10.84375 -10.171875 L 4.171875 -10.171875 L 4.171875 -10.859375 L 10.671875 -10.859375 C 11.804688 -10.859375 12.804688 -10.648438 13.671875 -10.234375 C 14.546875 -9.816406 15.226562 -9.210938 15.71875 -8.421875 C 16.21875 -7.628906 16.46875 -6.691406 16.46875 -5.609375 L 16.46875 -5.375 C 16.46875 -4.40625 16.253906 -3.503906 15.828125 -2.671875 C 15.398438 -1.847656 14.753906 -1.1875 13.890625 -0.6875 C 13.035156 -0.1875 11.960938 0.0625 10.671875 0.0625 Z M 3.71875 0.0625 L 3.71875 -20.9375 L 4.625 -20.9375 L 4.625 0.0625 Z M 4.171875 -10.34375 L 4.171875 -11.03125 L 10.0625 -11.03125 C 11.644531 -11.03125 12.8125 -11.453125 13.5625 -12.296875 C 14.320312 -13.148438 14.703125 -14.238281 14.703125 -15.5625 C 14.703125 -16.875 14.320312 -17.953125 13.5625 -18.796875 C 12.8125 -19.648438 11.644531 -20.078125 10.0625 -20.078125 L 4.171875 -20.078125 L 4.171875 -20.9375 L 9.890625 -20.9375 C 11.816406 -20.9375 13.25 -20.4375 14.1875 -19.4375 C 15.132812 -18.445312 15.609375 -17.191406 15.609375 -15.671875 L 15.609375 -15.4375 C 15.609375 -14.394531 15.378906 -13.488281 14.921875 -12.71875 C 14.460938 -11.957031 13.804688 -11.367188 12.953125 -10.953125 C 12.109375 -10.546875 11.085938 -10.34375 9.890625 -10.34375 Z M 4.171875 -10.34375 "/></g></g></g><g fill="#f1eceb" fill-opacity="1"><g transform="translate(206.888841, 25.886658)"><g><path d="M 3.78125 0 L 3.78125 -20.875 L 4.6875 -20.875 L 4.6875 0 Z M 3.78125 0 "/></g></g></g><g fill="#ff3131" fill-opacity="1"><g transform="translate(215.359674, 25.886658)"><g><path d="M 2.09375 0 L 2.09375 -3.484375 L 5.40625 -3.484375 L 5.40625 0 Z M 2.09375 0 "/></g></g></g></svg>