<svg xmlns="http://www.w3.org/2000/svg" xmlns:xlink="http://www.w3.org/1999/xlink" width="40" zoomAndPan="magnify" viewBox="0 0 30 37.5" height="50" preserveAspectRatio="xMidYMid meet" version="1.0"><defs><g/></defs><g fill="#be2850" fill-opacity="1"><g transform="translate(2.218358, 32.568965)"><g><path d="M 7.1875 0.9375 C 7.1875 0.8125 7.25 0.410156 7.375 -0.265625 C 7.507812 -0.953125 7.65625 -1.710938 7.8125 -2.546875 C 7.6875 -2.023438 7.550781 -1.515625 7.40625 -1.015625 C 7.257812 -0.523438 7.109375 -0.03125 6.953125 0.46875 C 6.773438 0.101562 6.6875 -0.300781 6.6875 -0.75 C 6.6875 -1.582031 6.796875 -2.394531 7.015625 -3.1875 C 7.234375 -3.976562 7.410156 -4.789062 7.546875 -5.625 L 7.9375 -5.625 C 7.957031 -6.613281 8.019531 -7.609375 8.125 -8.609375 C 8.226562 -9.617188 8.28125 -10.617188 8.28125 -11.609375 C 8.28125 -12.566406 8.175781 -13.5 7.96875 -14.40625 C 7.757812 -15.320312 7.382812 -16.1875 6.84375 -17 L 6.609375 -16.875 C 6.785156 -16.5625 6.957031 -16.175781 7.125 -15.71875 C 7.300781 -15.269531 7.453125 -14.796875 7.578125 -14.296875 C 7.710938 -13.804688 7.820312 -13.316406 7.90625 -12.828125 C 8 -12.347656 8.046875 -11.941406 8.046875 -11.609375 C 8.046875 -10.640625 8.015625 -9.671875 7.953125 -8.703125 C 7.890625 -7.742188 7.753906 -6.796875 7.546875 -5.859375 C 7.617188 -6.617188 7.691406 -7.378906 7.765625 -8.140625 C 7.847656 -8.910156 7.890625 -9.675781 7.890625 -10.4375 C 7.890625 -11.601562 7.742188 -12.710938 7.453125 -13.765625 C 7.171875 -14.828125 6.796875 -15.859375 6.328125 -16.859375 C 5.859375 -17.859375 5.316406 -18.820312 4.703125 -19.75 C 4.097656 -20.675781 3.457031 -21.59375 2.78125 -22.5 C 2.28125 -23.175781 1.867188 -23.875 1.546875 -24.59375 C 1.222656 -25.3125 0.835938 -26.007812 0.390625 -26.6875 C 0.597656 -26.738281 0.765625 -26.832031 0.890625 -26.96875 C 1.023438 -27.113281 1.195312 -27.203125 1.40625 -27.234375 C 1.613281 -27.148438 1.800781 -27.003906 1.96875 -26.796875 C 2.144531 -26.585938 2.296875 -26.378906 2.421875 -26.171875 L 2.78125 -26.40625 C 2.570312 -26.957031 2.46875 -27.476562 2.46875 -27.96875 C 2.46875 -28.175781 2.507812 -28.429688 2.59375 -28.734375 C 2.6875 -29.035156 2.878906 -29.1875 3.171875 -29.1875 C 3.484375 -29.1875 3.882812 -28.941406 4.375 -28.453125 C 4.875 -27.972656 5.414062 -27.351562 6 -26.59375 C 6.582031 -25.84375 7.171875 -25.003906 7.765625 -24.078125 C 8.367188 -23.160156 8.929688 -22.269531 9.453125 -21.40625 C 9.972656 -20.550781 10.421875 -19.765625 10.796875 -19.046875 C 11.179688 -18.328125 11.4375 -17.8125 11.5625 -17.5 L 12.234375 -17.9375 L 12.46875 -17.703125 C 12.832031 -18.242188 13.25 -18.742188 13.71875 -19.203125 C 14.1875 -19.660156 14.660156 -20.109375 15.140625 -20.546875 C 15.617188 -20.992188 16.085938 -21.441406 16.546875 -21.890625 C 17.003906 -22.347656 17.390625 -22.863281 17.703125 -23.4375 L 17.46875 -23.5625 C 16.707031 -22.59375 15.882812 -21.679688 15 -20.828125 C 14.164062 -20.046875 13.347656 -19.238281 12.546875 -18.40625 C 13.796875 -19.78125 15.003906 -21.132812 16.171875 -22.46875 C 17.398438 -23.875 18.640625 -25.316406 19.890625 -26.796875 L 21.53125 -28.59375 C 21.601562 -28.539062 21.695312 -28.488281 21.8125 -28.4375 C 21.9375 -28.382812 22.0625 -28.332031 22.1875 -28.28125 C 22.320312 -28.226562 22.429688 -28.160156 22.515625 -28.078125 C 22.609375 -28.003906 22.65625 -27.914062 22.65625 -27.8125 C 22.65625 -27.738281 22.625 -27.640625 22.5625 -27.515625 C 22.5 -27.398438 22.441406 -27.316406 22.390625 -27.265625 L 22.734375 -27.03125 C 23.179688 -27.425781 23.675781 -27.625 24.21875 -27.625 C 24.507812 -27.625 24.738281 -27.546875 24.90625 -27.390625 C 25.070312 -27.234375 25.15625 -27.007812 25.15625 -26.71875 C 25.15625 -26.125 24.945312 -25.46875 24.53125 -24.75 C 24.113281 -24.03125 23.578125 -23.285156 22.921875 -22.515625 C 22.273438 -21.753906 21.566406 -20.988281 20.796875 -20.21875 C 20.035156 -19.445312 19.289062 -18.722656 18.5625 -18.046875 C 17.832031 -17.367188 17.1875 -16.75 16.625 -16.1875 C 16.0625 -15.632812 15.664062 -15.1875 15.4375 -14.84375 C 15.332031 -14.820312 15.191406 -14.734375 15.015625 -14.578125 C 14.847656 -14.421875 14.664062 -14.25 14.46875 -14.0625 C 14.28125 -13.882812 14.082031 -13.722656 13.875 -13.578125 C 13.664062 -13.429688 13.46875 -13.359375 13.28125 -13.359375 L 12.8125 -13.515625 C 12.863281 -13.648438 13.046875 -13.882812 13.359375 -14.21875 C 13.671875 -14.5625 14.019531 -14.914062 14.40625 -15.28125 C 14.800781 -15.644531 15.164062 -15.984375 15.5 -16.296875 C 15.84375 -16.609375 16.082031 -16.816406 16.21875 -16.921875 C 15.875 -16.816406 15.515625 -16.613281 15.140625 -16.3125 C 14.765625 -16.007812 14.398438 -15.679688 14.046875 -15.328125 C 13.691406 -14.984375 13.378906 -14.640625 13.109375 -14.296875 C 12.835938 -13.960938 12.660156 -13.703125 12.578125 -13.515625 C 12.578125 -12.765625 12.550781 -11.882812 12.5 -10.875 C 12.445312 -9.875 12.375 -8.835938 12.28125 -7.765625 C 12.195312 -6.703125 12.085938 -5.648438 11.953125 -4.609375 C 11.828125 -3.566406 11.691406 -2.640625 11.546875 -1.828125 C 11.398438 -1.023438 11.242188 -0.367188 11.078125 0.140625 C 10.910156 0.648438 10.734375 0.90625 10.546875 0.90625 C 10.492188 0.90625 10.414062 0.878906 10.3125 0.828125 C 10.445312 -0.117188 10.578125 -1.0625 10.703125 -2 C 10.835938 -2.851562 10.96875 -3.710938 11.09375 -4.578125 L 10.078125 0.828125 L 9.53125 0.671875 C 9.476562 0.953125 9.359375 1.273438 9.171875 1.640625 C 8.992188 2.003906 8.738281 2.1875 8.40625 2.1875 C 8.113281 2.1875 7.835938 2.050781 7.578125 1.78125 C 7.316406 1.507812 7.1875 1.226562 7.1875 0.9375 Z M 11.921875 -16.640625 C 12.234375 -16.796875 12.585938 -17.054688 12.984375 -17.421875 C 13.390625 -17.785156 13.800781 -18.179688 14.21875 -18.609375 C 14.632812 -19.046875 15.03125 -19.484375 15.40625 -19.921875 C 15.789062 -20.367188 16.125 -20.75 16.40625 -21.0625 C 15.601562 -20.382812 14.863281 -19.644531 14.1875 -18.84375 C 13.507812 -18.050781 12.726562 -17.382812 11.84375 -16.84375 Z M 8.5625 -6.921875 C 8.664062 -7.441406 8.753906 -7.96875 8.828125 -8.5 C 8.910156 -9.03125 8.953125 -9.570312 8.953125 -10.125 C 8.953125 -11.113281 8.847656 -12.164062 8.640625 -13.28125 C 8.710938 -12.425781 8.75 -11.566406 8.75 -10.703125 C 8.75 -10.078125 8.726562 -9.445312 8.6875 -8.8125 C 8.65625 -8.175781 8.613281 -7.546875 8.5625 -6.921875 Z M 11.140625 -4.8125 C 11.316406 -5.90625 11.472656 -6.984375 11.609375 -8.046875 C 11.734375 -9.085938 11.820312 -10.144531 11.875 -11.21875 C 11.769531 -10.144531 11.65625 -9.085938 11.53125 -8.046875 C 11.394531 -6.984375 11.265625 -5.90625 11.140625 -4.8125 Z M 11.09375 -4.6875 L 11.09375 -4.578125 C 11.09375 -4.628906 11.09375 -4.664062 11.09375 -4.6875 Z M 11.09375 -4.6875 "/></g></g></g></svg>